<?xml version="1.0" encoding="UTF-8"?>
<svg width="1200pt" height="1200pt" version="1.1" viewBox="0 0 1200 1200" xmlns="http://www.w3.org/2000/svg">
 <path d="m555.61 991.22c-1.2188 9.6094 4.7812 19.219 14.391 20.391l162 26.391h2.3906c4.7812 0 9.6094-1.2188 12-4.7812 3.6094-3.6094 6-9.6094 4.7812-15.609l-19.219-160.78c-1.2188-9.6094-9.6094-16.781-20.391-15.609-9.6094 1.2188-16.781 9.6094-15.609 20.391l13.219 110.39c-93.609-88.781-202.78-240-194.39-388.78 30 22.781 67.219 33.609 99.609 28.781 30-4.7812 55.219-21.609 73.219-48 21.609-33.609 37.219-105.61 25.219-157.22-6-26.391-18-45.609-36-56.391-34.781-21.609-80.391-4.7812-122.39 45.609-28.781 33.609-48 69.609-60 106.78-9.6094-19.219-14.391-40.781-14.391-64.781 2.3906-86.391 79.219-184.78 153.61-243.61 8.3906-6 9.6094-18 3.6094-25.219-6-8.3906-18-9.6094-25.219-3.6094-75.609 58.781-164.39 165.61-166.78 271.22-1.2188 42 12 80.391 38.391 114-24 153.61 68.391 320.39 196.78 442.78l-105.61-16.781c-8.4375-2.3906-16.828 3.6094-19.219 14.438zm28.781-572.44c4.7812-6 48-56.391 75.609-38.391 9.6094 6 16.781 16.781 20.391 33.609 10.781 44.391-4.7812 105.61-20.391 129.61-12 18-27.609 28.781-48 32.391-25.219 3.6094-56.391-7.2188-79.219-27.609-3.6094-2.3906-6-6-9.6094-9.6094 9.6094-40.781 28.828-81.562 61.219-120z" fill="#fff"/>
</svg>
